<svg version="1.2" xmlns="http://www.w3.org/2000/svg" viewBox="0 0 35 35" width="35" height="35">
	<title>hearts</title>
	<style>
		.s0 { fill: none;stroke: #d2a1a8;stroke-linecap: round;stroke-linejoin: round;stroke-width: 1.6 } 
	</style>
	<path fill-rule="evenodd" class="s0" d="m4 13.6q0-0.4 0-0.9c0-4.4 3.5-8.1 7.8-8.1 2.6 0 4.8 1.3 6.3 3.3 1.4-2 3.7-3.3 6.2-3.3 4.4 0 7.9 3.7 7.9 8.1 0 10.1-9.2 16.1-13.3 17.5-0.4 0.2-1.2 0.2-1.7 0q-1-0.3-2.2-1m6.7-11c0-3.1-2.4-5.7-5.5-5.7-1.7 0-3.3 0.9-4.3 2.3-1-1.4-2.6-2.3-4.4-2.3-3.1 0-5.5 2.6-5.5 5.7q0 0.3 0 0.7c0.1 2.4 1 4.4 2.2 6.1 1.6 2.2 3.8 3.8 5.5 4.8q0.9 0.4 1.5 0.7c0.4 0.1 0.9 0.1 1.3 0 2.8-1 9.2-5.2 9.2-12.3z"/>
</svg>