<svg width="43" height="42" viewBox="0 0 43 42" fill="none" xmlns="http://www.w3.org/2000/svg">
<path d="M18.4005 35.0879C19.4122 35.6132 20.3398 36.0096 21.1186 36.2755C21.7081 36.4835 22.6791 36.4835 23.2686 36.2755C28.2968 34.5589 39.5323 27.398 39.5323 15.2609C39.5323 9.90328 35.2149 5.5686 29.892 5.5686C26.7537 5.5686 23.9448 7.09441 22.1936 9.45248C20.4424 7.09441 17.6508 5.5686 14.4952 5.5686C9.1722 5.5686 4.85486 9.90328 4.85486 15.2609C4.85486 15.6386 4.86574 16.0114 4.88697 16.3794" stroke="#D2A1A8" stroke-width="2" stroke-linecap="round" stroke-linejoin="round"/>
<path d="M15.317 36.5478C14.9044 36.6934 14.2247 36.6934 13.812 36.5478C13.2669 36.3617 12.6176 36.0842 11.9093 35.7165C9.78218 34.612 7.12396 32.6939 5.16378 29.9951C3.69389 27.9713 2.61651 25.5085 2.44991 22.6206C2.43504 22.363 2.42743 22.102 2.42743 21.8376C2.42743 18.0873 5.44957 15.053 9.17565 15.053C11.3846 15.053 13.3387 16.121 14.5645 17.7717C15.7904 16.121 17.7566 15.053 19.9534 15.053C23.6795 15.053 26.7016 18.0873 26.7016 21.8376C26.7016 30.3336 18.8368 35.3462 15.317 36.5478Z" stroke="#D2A1A8" stroke-width="2" stroke-linecap="round" stroke-linejoin="round"/>
</svg>
